# xmcd
#
# Track frame offsets:
#	172
#	16827
#	31600
#	55577
#	87257
#	108120
#	127462
#	151570
#	171350
#	193642
#	221087
#
# Disc length: 3257 seconds
#
# Revision: 0
# Processed by: cddbd v1.4PL0 Copyright (c) Steve Scherf et al.
# Submitted via: EasyCDDAExtractor 4.6.0.1
#
DISCID=850cb70b
DTITLE=Kevin Mulligan - International
DYEAR=1900
DGENRE=
TTITLE0=Roll Away
TTITLE1=To Love Somebody
TTITLE2=Rivertown
TTITLE3=KN3
TTITLE4=Havana
TTITLE5=Kingscourt
TTITLE6=Memphis
TTITLE7=Soft and Slow
TTITLE8=Home in that Rock
TTITLE9=Sixteen Tons
TTITLE10=Great North Plains
EXTD=
EXTT0=
EXTT1=
EXTT2=
EXTT3=
EXTT4=
EXTT5=
EXTT6=
EXTT7=
EXTT8=
EXTT9=
EXTT10=
PLAYORDER=
